{"accessors" : [{"bufferView" : 0, "byteOffset" : 0, "componentType" : 5123, "count" : 14043, "type" : "SCALAR", "max" : [12286], "min" : [0]}, {"bufferView" : 1, "byteOffset" : 0, "componentType" : 5126, "count" : 12287, "type" : "VEC3", "max" : [0.19105331599712372, 0.07087647914886475, 0.2603946924209595], "min" : [-0.2006651610136032, -0.08971428126096725, -0.2626121938228607], "name" : "POSITION"}, {"bufferView" : 1, "byteOffset" : 12, "componentType" : 5126, "count" : 12287, "type" : "VEC3", "max" : [0.9998533129692078, 0.9995584487915039, 0.9979159235954285], "min" : [-0.9999367594718933, -0.9944555759429932, -0.9985332489013672], "name" : "NORMAL"}, {"bufferView" : 1, "byteOffset" : 24, "componentType" : 5126, "count" : 12287, "type" : "VEC2", "max" : [0.9970735311508179, -0.00044923630775883794], "min" : [0.00044923630775883794, -0.9951192736625671], "name" : "TEXCOORD_0"}], "asset" : {"generator" : "Aspose.3D 22.10", "version" : "2.0"}, "buffers" : [{"uri" : "data:application/octet-stream;base64,", "byteLength" : 477472}], "bufferViews" : [{"buffer" : 0, "byteOffset" : 0, "byteLength" : 28088, "target" : 34963}, {"buffer" : 0, "byteOffset" : 28092, "byteLength" : 449376, "byteStride" : 32, "target" : 34962}], "images" : [{"uri" : "data:image/png;base64,"}], "materials" : [{"name" : "texture_0", "pbrMetallicRoughness" : {"baseColorFactor" : [1, 1, 1, 1], "baseColorTexture" : {"index" : 0, "texCoord" : 0}, "metallicFactor" : 0, "roughnessFactor" : 0.8999999761581421}, "emissiveFactor" : [0, 0, 0], "alphaMode" : "OPAQUE", "doubleSided" : false}], "meshes" : [{"primitives" : [{"attributes" : {"POSITION" : 1, "NORMAL" : 2, "TEXCOORD_0" : 3}, "indices" : 0, "material" : 0, "mode" : 4}], "name" : "group_0"}], "nodes" : [{"mesh" : 0, "name" : "baked_mesh"}], "samplers" : [{"magFilter" : 9729, "minFilter" : 9729, "wrapS" : 10497, "wrapT" : 10497}], "scene" : 0, "scenes" : [{"nodes" : [0]}], "textures" : [{"sampler" : 0, "source" : 0, "name" : "diffuseColor_texture"}]}